<?xml version="1.0" encoding="UTF-8" standalone="no"?>
<!-- Created with Inkscape (http://www.inkscape.org/) -->

<svg
   version="1.1"
   id="svg1"
   width="5958.4004"
   height="1372.8"
   viewBox="0 0 595.84003 137.28"
   xmlns="http://www.w3.org/2000/svg"
   xmlns:svg="http://www.w3.org/2000/svg">
  <defs
     id="defs1">
    <clipPath
       clipPathUnits="userSpaceOnUse"
       id="clipPath2">
      <path
         d="M 12.5,0 H 1850 V 428.125 H 12.5 Z"
         transform="matrix(0.33867935,0,0,0.33867935,135.68218,1112.9416)"
         clip-rule="evenodd"
         id="path2" />
    </clipPath>
    <clipPath
       clipPathUnits="userSpaceOnUse"
       id="clipPath4">
      <path
         d="M 12.5,0 H 1850 V 428.125 H 12.5 Z"
         transform="matrix(0.33867935,0,0,0.33867935,135.68218,1112.9416)"
         clip-rule="evenodd"
         id="path4" />
    </clipPath>
    <clipPath
       clipPathUnits="userSpaceOnUse"
       id="clipPath6">
      <path
         d="M 12.5,0 H 1850 V 428.125 H 12.5 Z"
         transform="matrix(0.33867935,0,0,0.33867935,135.68218,1112.9416)"
         clip-rule="evenodd"
         id="path6" />
    </clipPath>
    <clipPath
       clipPathUnits="userSpaceOnUse"
       id="clipPath7">
      <path
         d="M 12.5,0 H 1850 V 428.125 H 12.5 Z"
         transform="matrix(0.33867935,0,0,0.33867935,-121.47405,-45.558402)"
         clip-rule="evenodd"
         id="path7" />
    </clipPath>
    <clipPath
       clipPathUnits="userSpaceOnUse"
       id="clipPath9">
      <path
         d="M 12.5,0 H 1850 V 428.125 H 12.5 Z"
         transform="matrix(0.33867935,0,0,0.33867935,135.68218,1112.9416)"
         clip-rule="evenodd"
         id="path9" />
    </clipPath>
    <clipPath
       clipPathUnits="userSpaceOnUse"
       id="clipPath10">
      <path
         d="M 12.5,0 H 1850 V 428.125 H 12.5 Z"
         transform="matrix(0.33867935,0,0,0.33867935,-33.802179,-21.558402)"
         clip-rule="evenodd"
         id="path10" />
    </clipPath>
    <clipPath
       clipPathUnits="userSpaceOnUse"
       id="clipPath11">
      <path
         d="M 12.5,0 H 1850 V 428.125 H 12.5 Z"
         transform="matrix(0.33867935,0,0,0.33867935,-34.645934,-35.558403)"
         clip-rule="evenodd"
         id="path11" />
    </clipPath>
    <clipPath
       clipPathUnits="userSpaceOnUse"
       id="clipPath12">
      <path
         d="M 12.5,0 H 1850 V 428.125 H 12.5 Z"
         transform="matrix(0.33867935,0,0,0.33867935,-26.817804,-50.558402)"
         clip-rule="evenodd"
         id="path12" />
    </clipPath>
    <clipPath
       clipPathUnits="userSpaceOnUse"
       id="clipPath14">
      <path
         d="M 12.5,0 H 1850 V 428.125 H 12.5 Z"
         transform="matrix(0.33867935,0,0,0.33867935,135.68218,1112.9416)"
         clip-rule="evenodd"
         id="path14" />
    </clipPath>
    <clipPath
       clipPathUnits="userSpaceOnUse"
       id="clipPath15">
      <path
         d="M 12.5,0 H 1850 V 428.125 H 12.5 Z"
         transform="matrix(0.33867935,0,0,0.33867935,-197.8178,-21.558402)"
         clip-rule="evenodd"
         id="path15" />
    </clipPath>
    <clipPath
       clipPathUnits="userSpaceOnUse"
       id="clipPath16">
      <path
         d="M 12.5,0 H 1850 V 428.125 H 12.5 Z"
         transform="matrix(0.33867935,0,0,0.33867935,-193.80219,-35.558403)"
         clip-rule="evenodd"
         id="path16" />
    </clipPath>
    <clipPath
       clipPathUnits="userSpaceOnUse"
       id="clipPath17">
      <path
         d="M 12.5,0 H 1850 V 428.125 H 12.5 Z"
         transform="matrix(0.33867935,0,0,0.33867935,-202.47405,-50.558402)"
         clip-rule="evenodd"
         id="path17" />
    </clipPath>
    <clipPath
       clipPathUnits="userSpaceOnUse"
       id="clipPath19">
      <path
         d="M 12.5,0 H 1850 V 428.125 H 12.5 Z"
         transform="matrix(0.33867935,0,0,0.33867935,135.68218,1112.9416)"
         clip-rule="evenodd"
         id="path19" />
    </clipPath>
    <clipPath
       clipPathUnits="userSpaceOnUse"
       id="clipPath20">
      <path
         d="M 12.5,0 H 1850 V 428.125 H 12.5 Z"
         transform="matrix(0.33867935,0,0,0.33867935,-270.80218,-21.558402)"
         clip-rule="evenodd"
         id="path20" />
    </clipPath>
    <clipPath
       clipPathUnits="userSpaceOnUse"
       id="clipPath21">
      <path
         d="M 12.5,0 H 1850 V 428.125 H 12.5 Z"
         transform="matrix(0.33867935,0,0,0.33867935,-287.97405,-35.558403)"
         clip-rule="evenodd"
         id="path21" />
    </clipPath>
    <clipPath
       clipPathUnits="userSpaceOnUse"
       id="clipPath22">
      <path
         d="M 12.5,0 H 1850 V 428.125 H 12.5 Z"
         transform="matrix(0.33867935,0,0,0.33867935,-273.80218,-50.558402)"
         clip-rule="evenodd"
         id="path22" />
    </clipPath>
    <clipPath
       clipPathUnits="userSpaceOnUse"
       id="clipPath24">
      <path
         d="M 12.5,0 H 1850 V 428.125 H 12.5 Z"
         transform="matrix(0.33867935,0,0,0.33867935,135.68218,1112.9416)"
         clip-rule="evenodd"
         id="path24" />
    </clipPath>
    <clipPath
       clipPathUnits="userSpaceOnUse"
       id="clipPath25">
      <path
         d="M 12.5,0 H 1850 V 428.125 H 12.5 Z"
         transform="matrix(0.33867935,0,0,0.33867935,-440.8178,-21.558402)"
         clip-rule="evenodd"
         id="path25" />
    </clipPath>
    <clipPath
       clipPathUnits="userSpaceOnUse"
       id="clipPath26">
      <path
         d="M 12.5,0 H 1850 V 428.125 H 12.5 Z"
         transform="matrix(0.33867935,0,0,0.33867935,-451.47405,-35.558403)"
         clip-rule="evenodd"
         id="path26" />
    </clipPath>
    <clipPath
       clipPathUnits="userSpaceOnUse"
       id="clipPath27">
      <path
         d="M 12.5,0 H 1850 V 428.125 H 12.5 Z"
         transform="matrix(0.33867935,0,0,0.33867935,-438.81781,-50.558402)"
         clip-rule="evenodd"
         id="path27" />
    </clipPath>
    <clipPath
       clipPathUnits="userSpaceOnUse"
       id="clipPath29">
      <path
         d="M 12.5,0 H 1850 V 428.125 H 12.5 Z"
         transform="matrix(0.33867935,0,0,0.33867935,135.68218,1112.9416)"
         clip-rule="evenodd"
         id="path29" />
    </clipPath>
    <clipPath
       clipPathUnits="userSpaceOnUse"
       id="clipPath31">
      <path
         d="M 12.5,0 H 1850 V 428.125 H 12.5 Z"
         transform="matrix(0.33867935,0,0,0.33867935,135.68218,1112.9416)"
         clip-rule="evenodd"
         id="path31" />
    </clipPath>
    <clipPath
       clipPathUnits="userSpaceOnUse"
       id="clipPath33">
      <path
         d="M 12.5,0 H 1850 V 428.125 H 12.5 Z"
         transform="matrix(0.33867935,0,0,0.33867935,135.68218,1112.9416)"
         clip-rule="evenodd"
         id="path33" />
    </clipPath>
    <clipPath
       clipPathUnits="userSpaceOnUse"
       id="clipPath34">
      <path
         d="M 12.5,0 H 1850 V 428.125 H 12.5 Z"
         transform="matrix(0.33867935,0,0,0.33867935,-371.47405,-45.558402)"
         clip-rule="evenodd"
         id="path34" />
    </clipPath>
    <clipPath
       clipPathUnits="userSpaceOnUse"
       id="clipPath36">
      <path
         d="M 12.5,0 H 1850 V 428.125 H 12.5 Z"
         transform="matrix(0.33867935,0,0,0.33867935,135.68218,1112.9416)"
         clip-rule="evenodd"
         id="path36" />
    </clipPath>
    <clipPath
       clipPathUnits="userSpaceOnUse"
       id="clipPath38">
      <path
         d="M 12.5,0 H 1850 V 428.125 H 12.5 Z"
         transform="matrix(0.33867935,0,0,0.33867935,135.68218,1112.9416)"
         clip-rule="evenodd"
         id="path38" />
    </clipPath>
    <clipPath
       clipPathUnits="userSpaceOnUse"
       id="clipPath40">
      <path
         d="M 12.5,0 H 1850 V 428.125 H 12.5 Z"
         transform="matrix(0.33867935,0,0,0.33867935,135.68218,1112.9416)"
         clip-rule="evenodd"
         id="path40" />
    </clipPath>
    <clipPath
       clipPathUnits="userSpaceOnUse"
       id="clipPath41">
      <path
         d="M 12.5,0 H 1850 V 428.125 H 12.5 Z"
         transform="matrix(0.33867935,0,0,0.33867935,-531.47406,-45.558402)"
         clip-rule="evenodd"
         id="path41" />
    </clipPath>
    <clipPath
       clipPathUnits="userSpaceOnUse"
       id="clipPath43">
      <path
         d="M 12.5,0 H 1850 V 428.125 H 12.5 Z"
         transform="matrix(0.33867935,0,0,0.33867935,135.68218,1112.9416)"
         clip-rule="evenodd"
         id="path43" />
    </clipPath>
    <clipPath
       clipPathUnits="userSpaceOnUse"
       id="clipPath44">
      <path
         d="M 12.5,0 H 1850 V 428.125 H 12.5 Z"
         transform="matrix(0.33867935,0,0,0.33867935,-505.98968,-108.5584)"
         clip-rule="evenodd"
         id="path44" />
    </clipPath>
    <clipPath
       clipPathUnits="userSpaceOnUse"
       id="clipPath45">
      <path
         d="M 12.5,0 H 1850 V 428.125 H 12.5 Z"
         transform="matrix(0.33867935,0,0,0.33867935,-510.17718,-123.5584)"
         clip-rule="evenodd"
         id="path45" />
    </clipPath>
    <clipPath
       clipPathUnits="userSpaceOnUse"
       id="clipPath47">
      <path
         d="M 12.5,0 H 1850 V 428.125 H 12.5 Z"
         transform="matrix(0.33867935,0,0,0.33867935,135.68218,1112.9416)"
         clip-rule="evenodd"
         id="path47" />
    </clipPath>
    <clipPath
       clipPathUnits="userSpaceOnUse"
       id="clipPath48">
      <path
         d="M 12.5,0 H 1850 V 428.125 H 12.5 Z"
         transform="matrix(0.33867935,0,0,0.33867935,-337.80219,-94.558402)"
         clip-rule="evenodd"
         id="path48" />
    </clipPath>
    <clipPath
       clipPathUnits="userSpaceOnUse"
       id="clipPath49">
      <path
         d="M 12.5,0 H 1850 V 428.125 H 12.5 Z"
         transform="matrix(0.33867935,0,0,0.33867935,-409.45843,-94.558402)"
         clip-rule="evenodd"
         id="path49" />
    </clipPath>
    <clipPath
       clipPathUnits="userSpaceOnUse"
       id="clipPath50">
      <path
         d="M 12.5,0 H 1850 V 428.125 H 12.5 Z"
         transform="matrix(0.33867935,0,0,0.33867935,-334.16155,-108.5584)"
         clip-rule="evenodd"
         id="path50" />
    </clipPath>
    <clipPath
       clipPathUnits="userSpaceOnUse"
       id="clipPath51">
      <path
         d="M 12.5,0 H 1850 V 428.125 H 12.5 Z"
         transform="matrix(0.33867935,0,0,0.33867935,-374.16155,-108.5584)"
         clip-rule="evenodd"
         id="path51" />
    </clipPath>
    <clipPath
       clipPathUnits="userSpaceOnUse"
       id="clipPath52">
      <path
         d="M 12.5,0 H 1850 V 428.125 H 12.5 Z"
         transform="matrix(0.33867935,0,0,0.33867935,-341.16156,-123.5584)"
         clip-rule="evenodd"
         id="path52" />
    </clipPath>
    <clipPath
       clipPathUnits="userSpaceOnUse"
       id="clipPath53">
      <path
         d="M 12.5,0 H 1850 V 428.125 H 12.5 Z"
         transform="matrix(0.33867935,0,0,0.33867935,-379.30218,-137.5584)"
         clip-rule="evenodd"
         id="path53" />
    </clipPath>
    <clipPath
       clipPathUnits="userSpaceOnUse"
       id="clipPath55">
      <path
         d="M 12.5,0 H 1850 V 428.125 H 12.5 Z"
         transform="matrix(0.33867935,0,0,0.33867935,135.68218,1112.9416)"
         clip-rule="evenodd"
         id="path55" />
    </clipPath>
    <clipPath
       clipPathUnits="userSpaceOnUse"
       id="clipPath56">
      <path
         d="M 12.5,0 H 1850 V 428.125 H 12.5 Z"
         transform="matrix(0.33867935,0,0,0.33867935,-85.458434,-94.558402)"
         clip-rule="evenodd"
         id="path56" />
    </clipPath>
    <clipPath
       clipPathUnits="userSpaceOnUse"
       id="clipPath57">
      <path
         d="M 12.5,0 H 1850 V 428.125 H 12.5 Z"
         transform="matrix(0.33867935,0,0,0.33867935,-193.17719,-94.558402)"
         clip-rule="evenodd"
         id="path57" />
    </clipPath>
    <clipPath
       clipPathUnits="userSpaceOnUse"
       id="clipPath58">
      <path
         d="M 12.5,0 H 1850 V 428.125 H 12.5 Z"
         transform="matrix(0.33867935,0,0,0.33867935,-82.208434,-108.5584)"
         clip-rule="evenodd"
         id="path58" />
    </clipPath>
    <clipPath
       clipPathUnits="userSpaceOnUse"
       id="clipPath59">
      <path
         d="M 12.5,0 H 1850 V 428.125 H 12.5 Z"
         transform="matrix(0.33867935,0,0,0.33867935,-80.224054,-123.5584)"
         clip-rule="evenodd"
         id="path59" />
    </clipPath>
    <clipPath
       clipPathUnits="userSpaceOnUse"
       id="clipPath60">
      <path
         d="M 12.5,0 H 1850 V 428.125 H 12.5 Z"
         transform="matrix(0.33867935,0,0,0.33867935,-192.41156,-123.5584)"
         clip-rule="evenodd"
         id="path60" />
    </clipPath>
    <clipPath
       clipPathUnits="userSpaceOnUse"
       id="clipPath61">
      <path
         d="M 12.5,0 H 1850 V 428.125 H 12.5 Z"
         transform="matrix(0.33867935,0,0,0.33867935,-129.3178,-137.5584)"
         clip-rule="evenodd"
         id="path61" />
    </clipPath>
  </defs>
  <g
     id="g1">
    <path
       id="path1"
       d="m 274.5,1175 v 3 h -1 v -3 z m 0,6 v 3 h -1 v -3 z m 0,6 v 3 h -1 v -3 z m 0,6 v 2 h -1 v -1 h 1 v 1 h -0.5 -0.5 v -2 z m -1,-2 v -3 h 1 v 3 z m 0,-6 v -3 h 1 v 3 z m 0,-6 v -3 h 1 v 3 z m 1,-2 v 3 h -1 v -3 z m 0,6 v 3 h -1 v -3 z m 0,6 v 3 h -1 v -3 z"
       style="fill:#000000;fill-opacity:1;fill-rule:nonzero;stroke:none"
       transform="matrix(0.94484646,0,0,0.94484646,-128.19883,-1051.5589)"
       clip-path="url(#clipPath2)" />
    <path
       id="path3"
       d="m 249,1123 c 0,-10.67 50,-10.67 50,0 v 44 c 0,10.67 -50,10.67 -50,0 z"
       style="fill:#f5f5f5;fill-opacity:1;fill-rule:nonzero;stroke:#666666;stroke-width:1;stroke-linecap:butt;stroke-linejoin:miter;stroke-miterlimit:10;stroke-dasharray:none;stroke-opacity:1"
       transform="matrix(0.94484646,0,0,0.94484646,-128.19883,-1051.5589)"
       clip-path="url(#clipPath4)" />
    <path
       id="path5"
       d="m 249,1123 c 0,8 50,8 50,0 m -50,4 c 0,8 50,8 50,0 m -50,4 c 0,8 50,8 50,0"
       style="fill:none;stroke:#666666;stroke-width:1;stroke-linecap:butt;stroke-linejoin:miter;stroke-miterlimit:10;stroke-dasharray:none;stroke-opacity:1"
       transform="matrix(0.94484646,0,0,0.94484646,-128.19883,-1051.5589)"
       clip-path="url(#clipPath6)" />
    <text
       id="text6"
       xml:space="preserve"
       transform="matrix(0.94484646,0,0,0.94484646,114.77433,43.045695)"
       clip-path="url(#clipPath7)"><tspan
         style="font-variant:normal;font-weight:700;font-size:12px;font-family:'Times New Roman';writing-mode:lr-tb;fill:#333333;fill-opacity:1;fill-rule:nonzero;stroke:none"
         x="0 8.0039062 16.669922 21.339844"
         y="0"
         id="tspan6">BCIM</tspan></text>
    <path
       id="path8"
       d="m 142,1120 h 80 l 20,25 -20,25 h -80 l 20,-25 z"
       style="fill:#dae8fc;fill-opacity:1;fill-rule:nonzero;stroke:#6c8ebf;stroke-width:1;stroke-linecap:butt;stroke-linejoin:miter;stroke-miterlimit:10;stroke-dasharray:none;stroke-opacity:1"
       transform="matrix(0.94484646,0,0,0.94484646,-128.19883,-1051.5589)"
       clip-path="url(#clipPath9)" />
    <text
       id="text10"
       xml:space="preserve"
       transform="matrix(0.94484646,0,0,0.94484646,31.937869,20.36938)"
       clip-path="url(#clipPath10)"><tspan
         style="font-variant:normal;font-weight:700;font-size:12px;font-family:'Times New Roman';writing-mode:lr-tb;fill:#000000;fill-opacity:1;fill-rule:nonzero;stroke:none"
         x="0 8.0039062 14.677734 18.011719 21.345703 28.019531 31.353516 38.027344 44.027344"
         y="0"
         id="tspan10">Building </tspan></text>
    <text
       id="text11"
       xml:space="preserve"
       transform="matrix(0.94484646,0,0,0.94484646,32.735088,33.597231)"
       clip-path="url(#clipPath11)"><tspan
         style="font-variant:normal;font-weight:700;font-size:12px;font-family:'Times New Roman';writing-mode:lr-tb;fill:#000000;fill-opacity:1;fill-rule:nonzero;stroke:none"
         x="0 7.3300781 13.330078 18.65625 22.652344 26.648438 32.648438 35.982422 39.316406"
         y="0"
         id="tspan11">Portfolio</tspan></text>
    <text
       id="text12"
       xml:space="preserve"
       transform="matrix(0.94484646,0,0,0.94484646,25.338707,47.769927)"
       clip-path="url(#clipPath12)"><tspan
         style="font-variant:normal;font-weight:700;font-size:12px;font-family:'Times New Roman';writing-mode:lr-tb;fill:#000000;fill-opacity:1;fill-rule:nonzero;stroke:none"
         x="0 9.3339844 14.660156 21.333984 26.660156 31.986328 37.986328 41.982422 45.316406 51.316406"
         y="0"
         id="tspan12">Generation</tspan></text>
    <path
       id="path13"
       d="m 306.25,1120 h 80 l 20,25 -20,25 h -80 l 20,-25 z"
       style="fill:#dae8fc;fill-opacity:1;fill-rule:nonzero;stroke:#6c8ebf;stroke-width:1;stroke-linecap:butt;stroke-linejoin:miter;stroke-miterlimit:10;stroke-dasharray:none;stroke-opacity:1"
       transform="matrix(0.94484646,0,0,0.94484646,-128.19883,-1051.5589)"
       clip-path="url(#clipPath14)" />
    <text
       id="text14"
       xml:space="preserve"
       transform="matrix(0.94484646,0,0,0.94484646,186.90745,20.36938)"
       clip-path="url(#clipPath15)"><tspan
         style="font-variant:normal;font-weight:700;font-size:12px;font-family:'Times New Roman';writing-mode:lr-tb;fill:#000000;fill-opacity:1;fill-rule:nonzero;stroke:none"
         x="0 4.6699219 8.6660156 13.992188 19.318359 25.318359 29.314453 32.648438 38.648438"
         y="0"
         id="tspan14">Iterative</tspan></text>
    <text
       id="text15"
       xml:space="preserve"
       transform="matrix(0.94484646,0,0,0.94484646,183.11331,33.597231)"
       clip-path="url(#clipPath16)"><tspan
         style="font-variant:normal;font-weight:700;font-size:12px;font-family:'Times New Roman';writing-mode:lr-tb;fill:#000000;fill-opacity:1;fill-rule:nonzero;stroke:none"
         x="0 6.6738281 10.007812 20.003906 26.677734 30.011719 36.011719 40.007812 45.333984"
         y="0"
         id="tspan15">Simulated</tspan></text>
    <text
       id="text16"
       xml:space="preserve"
       transform="matrix(0.94484646,0,0,0.94484646,191.30689,47.769927)"
       clip-path="url(#clipPath17)"><tspan
         style="font-variant:normal;font-weight:700;font-size:12px;font-family:'Times New Roman';writing-mode:lr-tb;fill:#000000;fill-opacity:1;fill-rule:nonzero;stroke:none"
         x="0 8.6660156 13.992188 18.662109 21.996094 27.996094"
         y="0"
         id="tspan16">Design</tspan></text>
    <path
       id="path18"
       d="m 393.25,1120 h 80 l 20,25 -20,25 h -80 l 20,-25 z"
       style="fill:#dae8fc;fill-opacity:1;fill-rule:nonzero;stroke:#6c8ebf;stroke-width:1;stroke-linecap:butt;stroke-linejoin:miter;stroke-miterlimit:10;stroke-dasharray:none;stroke-opacity:1"
       transform="matrix(0.94484646,0,0,0.94484646,-128.19883,-1051.5589)"
       clip-path="url(#clipPath19)" />
    <text
       id="text19"
       xml:space="preserve"
       transform="matrix(0.94484646,0,0,0.94484646,255.86648,20.36938)"
       clip-path="url(#clipPath20)"><tspan
         style="font-variant:normal;font-weight:700;font-size:12px;font-family:'Times New Roman';writing-mode:lr-tb;fill:#000000;fill-opacity:1;fill-rule:nonzero;stroke:none"
         x="0 9.3339844 16.007812 22.007812 25.341797 28.675781 32.671875 38.671875 42.667969 49.341797 55.341797 60.011719 65.337891"
         y="0"
         id="tspan19">Quality-based</tspan></text>
    <text
       id="text20"
       xml:space="preserve"
       transform="matrix(0.94484646,0,0,0.94484646,272.09126,33.597231)"
       clip-path="url(#clipPath21)"><tspan
         style="font-variant:normal;font-weight:700;font-size:12px;font-family:'Times New Roman';writing-mode:lr-tb;fill:#000000;fill-opacity:1;fill-rule:nonzero;stroke:none"
         x="0 8.6660156 13.992188 18.662109 21.996094 27.996094 34.669922"
         y="0"
         id="tspan20">Design </tspan></text>
    <text
       id="text21"
       xml:space="preserve"
       transform="matrix(0.94484646,0,0,0.94484646,258.70102,47.769927)"
       clip-path="url(#clipPath22)"><tspan
         style="font-variant:normal;font-weight:700;font-size:12px;font-family:'Times New Roman';writing-mode:lr-tb;fill:#000000;fill-opacity:1;fill-rule:nonzero;stroke:none"
         x="0 11.326172 17.326172 24 27.333984 31.330078 34.664062 39.990234 45.990234 49.986328 53.320312 59.320312"
         y="0"
         id="tspan21">Modification</tspan></text>
    <path
       id="path23"
       d="m 554,1120 h 80 l 20,25 -20,25 h -80 l 20,-25 z"
       style="fill:#dae8fc;fill-opacity:1;fill-rule:nonzero;stroke:#6c8ebf;stroke-width:1;stroke-linecap:butt;stroke-linejoin:miter;stroke-miterlimit:10;stroke-dasharray:none;stroke-opacity:1"
       transform="matrix(0.94484646,0,0,0.94484646,-128.19883,-1051.5589)"
       clip-path="url(#clipPath24)" />
    <text
       id="text24"
       xml:space="preserve"
       transform="matrix(0.94484646,0,0,0.94484646,416.50514,20.36938)"
       clip-path="url(#clipPath25)"><tspan
         style="font-variant:normal;font-weight:700;font-size:12px;font-family:'Times New Roman';writing-mode:lr-tb;fill:#000000;fill-opacity:1;fill-rule:nonzero;stroke:none"
         x="0 8.6660156 15.339844 25.335938 30.662109 35.988281 39.322266 44.648438 50.648438"
         y="0"
         id="tspan24">Numerical</tspan></text>
    <text
       id="text25"
       xml:space="preserve"
       transform="matrix(0.94484646,0,0,0.94484646,426.57366,33.597231)"
       clip-path="url(#clipPath26)"><tspan
         style="font-variant:normal;font-weight:700;font-size:12px;font-family:'Times New Roman';writing-mode:lr-tb;fill:#000000;fill-opacity:1;fill-rule:nonzero;stroke:none"
         x="0 11.326172 17.326172 24 29.326172"
         y="0"
         id="tspan25">Model</tspan></text>
    <text
       id="text26"
       xml:space="preserve"
       transform="matrix(0.94484646,0,0,0.94484646,414.61545,47.769927)"
       clip-path="url(#clipPath27)"><tspan
         style="font-variant:normal;font-weight:700;font-size:12px;font-family:'Times New Roman';writing-mode:lr-tb;fill:#000000;fill-opacity:1;fill-rule:nonzero;stroke:none"
         x="0 9.3339844 14.660156 21.333984 26.660156 31.986328 37.986328 41.982422 45.316406 51.316406"
         y="0"
         id="tspan26">Generation</tspan></text>
    <path
       id="path28"
       d="m 524.29999,1175 v 3 h -1 v -3 z m 0,6 v 3 h -1 v -3 z m 0,6 v 3 h -1 v -3 z m 0,6 v 2 h -1 v -1 h 1 v 1 h -0.5 -0.5 v -2 z m -1,-2 v -3 h 1 v 3 z m 0,-6 v -3 h 1 v 3 z m 0,-6 v -3 h 1 v 3 z m 1,-2 v 3 h -1 v -3 z m 0,6 v 3 h -1 v -3 z m 0,6 v 3 h -1 v -3 z"
       style="fill:#000000;fill-opacity:1;fill-rule:nonzero;stroke:none"
       transform="matrix(0.94484646,0,0,0.94484646,-128.19883,-1051.5589)"
       clip-path="url(#clipPath29)" />
    <path
       id="path30"
       d="m 498.75,1123 c 0,-10.67 50,-10.67 50,0 v 44 c 0,10.67 -50,10.67 -50,0 z"
       style="fill:#f5f5f5;fill-opacity:1;fill-rule:nonzero;stroke:#666666;stroke-width:1;stroke-linecap:butt;stroke-linejoin:miter;stroke-miterlimit:10;stroke-dasharray:none;stroke-opacity:1"
       transform="matrix(0.94484646,0,0,0.94484646,-128.19883,-1051.5589)"
       clip-path="url(#clipPath31)" />
    <path
       id="path32"
       d="m 498.75,1123 c 0,8 50,8 50,0 m -50,4 c 0,8 50,8 50,0 m -50,4 c 0,8 50,8 50,0"
       style="fill:none;stroke:#666666;stroke-width:1;stroke-linecap:butt;stroke-linejoin:miter;stroke-miterlimit:10;stroke-dasharray:none;stroke-opacity:1"
       transform="matrix(0.94484646,0,0,0.94484646,-128.19883,-1051.5589)"
       clip-path="url(#clipPath33)" />
    <text
       id="text33"
       xml:space="preserve"
       transform="matrix(0.94484646,0,0,0.94484646,350.98594,43.045695)"
       clip-path="url(#clipPath34)"><tspan
         style="font-variant:normal;font-weight:700;font-size:12px;font-family:'Times New Roman';writing-mode:lr-tb;fill:#333333;fill-opacity:1;fill-rule:nonzero;stroke:none"
         x="0 8.0039062 16.669922 21.339844"
         y="0"
         id="tspan33">BDIM</tspan></text>
    <path
       id="path35"
       d="m 685.79999,1175 v 3 h -1 v -3 z m 0,6 v 3 h -1 v -3 z m 0,6 v 3 h -1 v -3 z m 0,6 v 2 h -1 v -1 h 1 v 1 h -0.5 -0.5 v -2 z m -1,-2 v -3 h 1 v 3 z m 0,-6 v -3 h 1 v 3 z m 0,-6 v -3 h 1 v 3 z m 1,-2 v 3 h -1 v -3 z m 0,6 v 3 h -1 v -3 z m 0,6 v 3 h -1 v -3 z"
       style="fill:#000000;fill-opacity:1;fill-rule:nonzero;stroke:none"
       transform="matrix(0.94484646,0,0,0.94484646,-128.19883,-1051.5589)"
       clip-path="url(#clipPath36)" />
    <path
       id="path37"
       d="m 660.25,1123 c 0,-10.67 50,-10.67 50,0 v 44 c 0,10.67 -50,10.67 -50,0 z"
       style="fill:#f5f5f5;fill-opacity:1;fill-rule:nonzero;stroke:#666666;stroke-width:1;stroke-linecap:butt;stroke-linejoin:miter;stroke-miterlimit:10;stroke-dasharray:none;stroke-opacity:1"
       transform="matrix(0.94484646,0,0,0.94484646,-128.19883,-1051.5589)"
       clip-path="url(#clipPath38)" />
    <path
       id="path39"
       d="m 660.25,1123 c 0,8 50,8 50,0 m -50,4 c 0,8 50,8 50,0 m -50,4 c 0,8 50,8 50,0"
       style="fill:none;stroke:#666666;stroke-width:1;stroke-linecap:butt;stroke-linejoin:miter;stroke-miterlimit:10;stroke-dasharray:none;stroke-opacity:1"
       transform="matrix(0.94484646,0,0,0.94484646,-128.19883,-1051.5589)"
       clip-path="url(#clipPath40)" />
    <text
       id="text40"
       xml:space="preserve"
       transform="matrix(0.94484646,0,0,0.94484646,502.16138,43.045695)"
       clip-path="url(#clipPath41)"><tspan
         style="font-variant:normal;font-weight:700;font-size:12px;font-family:'Times New Roman';writing-mode:lr-tb;fill:#333333;fill-opacity:1;fill-rule:nonzero;stroke:none"
         x="0 8.0039062 16.669922 23.34375"
         y="0"
         id="tspan40">BNSM</tspan></text>
    <path
       id="path42"
       d="m 610.25,1255 20,-60 h 130 l -20,60 z"
       style="fill:#d5e8d4;fill-opacity:1;fill-rule:nonzero;stroke:#82b366;stroke-width:1;stroke-linecap:butt;stroke-linejoin:miter;stroke-miterlimit:10;stroke-dasharray:none;stroke-opacity:1"
       transform="matrix(0.94484646,0,0,0.94484646,-128.19883,-1051.5589)"
       clip-path="url(#clipPath43)" />
    <text
       id="text43"
       xml:space="preserve"
       transform="matrix(0.94484646,0,0,0.94484646,478.08256,102.57102)"
       clip-path="url(#clipPath44)"><tspan
         style="font-variant:normal;font-weight:normal;font-size:12px;font-family:'Times New Roman';writing-mode:lr-tb;fill:#000000;fill-opacity:1;fill-rule:nonzero;stroke:none"
         x="0 8.6660156 14.666016 19.992188 25.992188 32.666016 37.992188 43.318359 47.988281 50.988281 60.322266 66.322266 72.322266 77.648438 80.982422"
         y="0"
         id="tspan43">OpenSees models</tspan></text>
    <text
       id="text44"
       xml:space="preserve"
       transform="matrix(0.94484646,0,0,0.94484646,482.0391,116.74372)"
       clip-path="url(#clipPath45)"><tspan
         style="font-variant:normal;font-weight:normal;font-size:12px;font-family:'Times New Roman';writing-mode:lr-tb;fill:#000000;fill-opacity:1;fill-rule:nonzero;stroke:none"
         x="0 3.3339844 9.3339844 12.117188 18.609375 23.935547 27.269531 30.269531 36.269531 40.265625 43.265625 49.939453 55.939453 59.273438 65.273438 71.273438"
         y="0"
         id="tspan44">in Tcl or Python</tspan></text>
    <path
       id="path46"
       d="m 448.75,1255 20,-60 h 130 l -20,60 z"
       style="fill:#d5e8d4;fill-opacity:1;fill-rule:nonzero;stroke:#82b366;stroke-width:1;stroke-linecap:butt;stroke-linejoin:miter;stroke-miterlimit:10;stroke-dasharray:none;stroke-opacity:1"
       transform="matrix(0.94484646,0,0,0.94484646,-128.19883,-1051.5589)"
       clip-path="url(#clipPath47)" />
    <text
       id="text47"
       xml:space="preserve"
       transform="matrix(0.94484646,0,0,0.94484646,319.1712,89.343171)"
       clip-path="url(#clipPath48)"><tspan
         style="font-variant:normal;font-weight:normal;font-size:12px;font-family:'Times New Roman';writing-mode:lr-tb;fill:#000000;fill-opacity:1;fill-rule:nonzero;stroke:none"
         x="0 9.3339844 14.660156 23.994141 29.994141 35.320312 39.316406 42.316406 46.986328 50.320312 55.646484 60.972656 65.642578 68.642578"
         y="0"
         id="tspan47">member sizes, </tspan></text>
    <text
       id="text48"
       xml:space="preserve"
       transform="matrix(0.94484646,0,0,0.94484646,386.87535,89.343171)"
       clip-path="url(#clipPath49)"><tspan
         style="font-variant:normal;font-weight:normal;font-size:12px;font-family:'Times New Roman';writing-mode:lr-tb;fill:#000000;fill-opacity:1;fill-rule:nonzero;stroke:none"
         x="0 3.3339844 9.3339844 14.660156 20.660156 25.330078"
         y="0"
         id="tspan48">loads,</tspan></text>
    <text
       id="text50"
       xml:space="preserve"
       transform="matrix(0.94484646,0,0,0.94484646,315.73136,102.57102)"
       clip-path="url(#clipPath50)"><tspan
         style="font-variant:normal;font-weight:normal;font-size:12px;font-family:'Times New Roman';writing-mode:lr-tb;fill:#000000;fill-opacity:1;fill-rule:nonzero;stroke:none"
         x="0 9.3339844 14.660156 19.330078 24 29.326172 33.996094 36.996094"
         y="0"
         id="tspan50">masses, </tspan></text>
    <text
       id="text51"
       xml:space="preserve"
       transform="matrix(0.94484646,0,0,0.94484646,353.52522,102.57102)"
       clip-path="url(#clipPath51)"><tspan
         style="font-variant:normal;font-weight:normal;font-size:12px;font-family:'Times New Roman';writing-mode:lr-tb;fill:#000000;fill-opacity:1;fill-rule:nonzero;stroke:none"
         x="0 3.9960938 9.3222656 12.65625 18.65625 22.652344 28.652344 32.648438 37.974609 43.300781 52.634766 57.960938 63.960938 67.294922"
         y="0"
         id="tspan51">reinforcement,</tspan></text>
    <text
       id="text52"
       xml:space="preserve"
       transform="matrix(0.94484646,0,0,0.94484646,322.34529,116.74372)"
       clip-path="url(#clipPath52)"><tspan
         style="font-variant:normal;font-weight:normal;font-size:12px;font-family:'Times New Roman';writing-mode:lr-tb;fill:#000000;fill-opacity:1;fill-rule:nonzero;stroke:none"
         x="0 9.3339844 14.660156 17.994141 23.320312 27.316406 30.650391 35.976562 39.310547 42.310547 48.310547 52.306641 58.306641 64.306641 69.632812 73.628906 76.962891 80.296875 85.623047 90.292969"
         y="0"
         id="tspan52">material properties,</tspan></text>
    <text
       id="text53"
       xml:space="preserve"
       transform="matrix(0.94484646,0,0,0.94484646,358.38232,129.97157)"
       clip-path="url(#clipPath53)"><tspan
         style="font-variant:normal;font-weight:normal;font-size:12px;font-family:'Times New Roman';writing-mode:lr-tb;fill:#000000;fill-opacity:1;fill-rule:nonzero;stroke:none"
         x="0 5.3261719 8.6601562 13.986328"
         y="0"
         id="tspan53">etc.</tspan></text>
    <path
       id="path54"
       d="m 199,1255 20,-60 h 130 l -20,60 z"
       style="fill:#d5e8d4;fill-opacity:1;fill-rule:nonzero;stroke:#82b366;stroke-width:1;stroke-linecap:butt;stroke-linejoin:miter;stroke-miterlimit:10;stroke-dasharray:none;stroke-opacity:1"
       transform="matrix(0.94484646,0,0,0.94484646,-128.19883,-1051.5589)"
       clip-path="url(#clipPath55)" />
    <text
       id="text55"
       xml:space="preserve"
       transform="matrix(0.94484646,0,0,0.94484646,80.745099,89.343171)"
       clip-path="url(#clipPath56)"><tspan
         style="font-variant:normal;font-weight:normal;font-size:12px;font-family:'Times New Roman';writing-mode:lr-tb;fill:#000000;fill-opacity:1;fill-rule:nonzero;stroke:none"
         x="0 3.3339844 8.6601562 11.994141 17.320312 21.316406 26.642578 29.976562 32.976562 36.310547 42.310547 47.636719 53.636719 56.636719 61.962891 67.962891 73.289062 77.068359 81.064453 84.398438 89.724609 93.058594 98.384766 104.38477"
         y="0"
         id="tspan55">lateral load coefficient</tspan></text>
    <text
       id="text56"
       xml:space="preserve"
       transform="matrix(0.94484646,0,0,0.94484646,182.52278,89.343171)"
       clip-path="url(#clipPath57)"><tspan
         style="font-variant:normal;font-weight:normal;font-size:12px;font-family:'Times New Roman';writing-mode:lr-tb;fill:#000000;fill-opacity:1;fill-rule:nonzero;stroke:none"
         x="0"
         y="0"
         id="tspan56">,</tspan></text>
    <text
       id="text57"
       xml:space="preserve"
       transform="matrix(0.94484646,0,0,0.94484646,77.674348,102.57102)"
       clip-path="url(#clipPath58)"><tspan
         style="font-variant:normal;font-weight:normal;font-size:12px;font-family:'Times New Roman';writing-mode:lr-tb;fill:#000000;fill-opacity:1;fill-rule:nonzero;stroke:none"
         x="0 6 11.326172 15.996094 19.330078 25.330078 31.330078 34.330078 39.65625 42.990234 48.316406 52.986328 57.65625 60.65625 63.65625 69.65625 74.982422 80.982422 90.316406 95.642578 98.976562 102.97266 108.19336"
         y="0"
         id="tspan57">design class, geometry,</tspan></text>
    <text
       id="text58"
       xml:space="preserve"
       transform="matrix(0.94484646,0,0,0.94484646,75.799413,116.74372)"
       clip-path="url(#clipPath59)"><tspan
         style="font-variant:normal;font-weight:normal;font-size:12px;font-family:'Times New Roman';writing-mode:lr-tb;fill:#000000;fill-opacity:1;fill-rule:nonzero;stroke:none"
         x="0 6 12 17.326172 20.660156 23.994141 27.328125 32.548828 35.548828 38.548828 47.882812 53.208984 56.542969 61.869141 65.865234 69.199219 74.525391 77.859375 80.859375 86.859375 90.855469 96.181641 102.18164 107.50781"
         y="0"
         id="tspan58">quality, material grades</tspan></text>
    <text
       id="text59"
       xml:space="preserve"
       transform="matrix(0.94484646,0,0,0.94484646,181.79938,116.74372)"
       clip-path="url(#clipPath60)"><tspan
         style="font-variant:normal;font-weight:normal;font-size:12px;font-family:'Times New Roman';writing-mode:lr-tb;fill:#000000;fill-opacity:1;fill-rule:nonzero;stroke:none"
         x="0"
         y="0"
         id="tspan59">,</tspan></text>
    <text
       id="text60"
       xml:space="preserve"
       transform="matrix(0.94484646,0,0,0.94484646,122.18547,129.97157)"
       clip-path="url(#clipPath61)"><tspan
         style="font-variant:normal;font-weight:normal;font-size:12px;font-family:'Times New Roman';writing-mode:lr-tb;fill:#000000;fill-opacity:1;fill-rule:nonzero;stroke:none"
         x="0 5.3261719 8.6601562 13.986328"
         y="0"
         id="tspan60">etc.</tspan></text>
  </g>
</svg>
